{"title":"Transparent S03E01 1080p HDTV HEVC 6CH x265","uid":15891022,"size":361889847,"categoryP":"video","categoryS":"hd___tv_shows","magnet":"?xt=urn:btih:b1a1b528274798f77b0e11b976f429e6d3140ed0&amp;dn=Transparent+S03E01+1080p+HDTV+HEVC+6CH+x265&amp;tr=udp%3A%2F%2Ftracker.leechers-paradise.org%3A6969&amp;tr=udp%3A%2F%2Fzer0day.ch%3A1337&amp;tr=udp%3A%2F%2Fopen.demonii.com%3A1337&amp;tr=udp%3A%2F%2Ftracker.coppersurfer.tk%3A6969&amp;tr=udp%3A%2F%2Fexodus.desync.com%3A6969","seeders":16,"leechers":2,"uploader":"nayhtut","files":1,"time":1474744344,"description":"Source: Transparent S03E01 1080p HDTV x264-SKGTV (1.01 GB)\r\n\r\n\r\nComplete name: Transparent.S03E01.1080p.HDTV.HEVC.6CH.x265.mkv\r\nFormat                                   : Matroska\r\nFormat version                           : Version 4 / Version 2\r\nFile size                                : 345 MiB\r\nDuration                                 : 22mn 21s\r\nOverall bit rate                         : 2 158 Kbps\r\nWriting application                      : Lavf57.25.100\r\nWriting library                          : Lavf57.25.100\r\n\r\nVideo\r\n\r\nID                                       : 1\r\nFormat                                   : V_MPEGH/ISO/HEVC\r\nCodec ID                                 : V_MPEGH/ISO/HEVC\r\nDuration                                 : 22mn 21s\r\nBit rate                                 : 1 731 Kbps\r\nWidth                                    : 1 920 pixels\r\nHeight                                   : 960 pixels\r\nDisplay aspect ratio                     : 2.000\r\nFrame rate                               : 25.000 fps\r\nBits/(Pixel*Frame)                       : 0.038\r\nStream size                              : 277 MiB (80%)\r\nWriting library                          : Lavc57.48.101 libx265\r\nLanguage                                 : English\r\nDefault                                  : Yes\r\nForced                                   : No\r\nDURATION                                 : 00:22:21.491000000\r\n\r\nAudio\r\n\r\nID                                       : 2\r\nFormat                                   : AC-3\r\nFormat/Info                              : Audio Coding 3\r\nMode extension                           : CM (complete main)\r\nFormat settings, Endianness              : Big\r\nCodec ID                                 : A_AC3\r\nDuration                                 : 22mn 21s\r\nBit rate mode                            : Constant\r\nBit rate                                 : 384 Kbps\r\nChannel(s)                               : 6 channels\r\nChannel positions                        : Front: L C R, Side: L R, LFE\r\nSampling rate                            : 48.0 KHz\r\nBit depth                                : 16 bits\r\nCompression mode                         : Lossy\r\nStream size                              : 61.4 MiB (18%)\r\nWriting library                          : Lavc57.24.102 ac3\r\nLanguage                                 : English\r\nDefault                                  : Yes\r\nForced                                   : No\r\nDURATION                                 : 00:22:21.503000000","torrent":{"xt":"urn:btih:b1a1b528274798f77b0e11b976f429e6d3140ed0","amp;dn":"Transparent+S03E01+1080p+HDTV+HEVC+6CH+x265","amp;tr":["udp%3A%2F%2Ftracker.leechers-paradise.org%3A6969","udp%3A%2F%2Fzer0day.ch%3A1337","udp%3A%2F%2Fopen.demonii.com%3A1337","udp%3A%2F%2Ftracker.coppersurfer.tk%3A6969","udp%3A%2F%2Fexodus.desync.com%3A6969"],"infoHash":"b1a1b528274798f77b0e11b976f429e6d3140ed0","infoHashBuffer":{"type":"Buffer","data":[177,161,181,40,39,71,152,247,123,14,17,185,118,244,41,230,211,20,14,208]},"announce":[],"urlList":[]}}